<?xml version="1.0" encoding="UTF-8"?>
<svg id="Layer_2" data-name="Layer 2" xmlns="http://www.w3.org/2000/svg" xmlns:xlink="http://www.w3.org/1999/xlink" viewBox="0 0 120.35 122.9">
  <defs>
    <style>
      .cls-1 {
        fill: none;
      }

      .cls-2 {
        fill: #037060;
      }

      .cls-3 {
        clip-path: url(#clippath-1);
      }

      .cls-4 {
        clip-path: url(#clippath);
      }
    </style>
    <clipPath id="clippath">
      <rect class="cls-1" x="0" width="120.35" height="122.9"/>
    </clipPath>
    <clipPath id="clippath-1">
      <rect class="cls-1" x="0" width="120.35" height="122.9"/>
    </clipPath>
  </defs>
  <g class="cls-4">
    <g class="cls-3">
      <path class="cls-2" d="M91.54,12.64c16.09,10.49,30.26,26.8,28.69,54.46-1.44,25.32-17.91,44.52-38.79,52.07-3.21,1.16-7.65,2.95-10.1,2.66-3.38-.41-10.43-6.37-13.02-8.5-11.43-9.45-19.72-24.67-20.99-43.3-1.28-18.8,5.35-32.27,13.95-42.45l.43.36c-.76.97-1.31,1.98-1.62,2.51,1.91-.63,3.19-3.18,6.11-3.99,1.11-.31,2.35-.42,3.63-.36,4.61.23,9.62,2.74,9.92,6.74.68,9.16-19.89,7.65-20.77-.32-1.18.95-1.98,3.29-2.87,5.1-.91,1.85-1.98,3.58-2.57,5.66,2.56.15,3.31-1.46,5.23-2.21,5.55-2.17,14.82-1.49,17.53,2.12,4.92,6.55-4.51,11.12-8.23,10.63,3.55.63,10.76,7.1,3.18,14.08,4.24,2.02,8.6,8.64,4.52,13.28-1.16,1.32-2.91,1.62-4.52,2.92-1.46,2.26-4.59,4.77-5,5.1-.9.36-2.11.9-3.24.74,4.21,1.72,4.91-1.64,7.17-3.45,2.52-2.03,7.68-4.29,13.81-3.45,4.75.65,11.34,6.16,7.17,11.69-5.3,7.03-19.18,2.54-23.65-2.66-2.15-.2-3.58.32-5.58.27,4.92.45,11.55,3.05,10.36,8.77-1.35,6.48-14.02-1.26-11.96-7.97-.41-1.18-2.49-.7-3.99-.8,3.75,8.63,9.81,15.13,17.8,20.46,2.21,1.47,5.87,4.22,7.97,4.52,2.61.36,6.52-1.59,9.3-2.66,8.73-3.36,15.39-8.8,21.52-14.35-1.52.43-2.06,1.83-4.25,1.59-2.33-2.18-.42-4.65,0-7.97.53-4.17-1.58-8.51-.8-11.95.35-1.52,1.69-2.67,1.86-3.99.13-1-.41-2.19-.53-3.72-.2-2.44.64-5.32.27-6.91-.48-2.04-2.75-2.58-3.72-3.72-2.56.82-4.83,2.44-7.7,2.13-1.51-.17-4.38-1.06-5.58-1.86-1.37-.92-3.93-4.6-4.25-6.11-.48-2.29.83-4.43-.8-6.64.6-7.19,7.69-7.9,10.89-12.49,2.98.61,4.57-1.77,7.17-1.59,2.65.18,6.01,4.12,8.24,0,2.93.45,3.71-1.25,6.38-1.06-1.24-2.09-4.25-3.65-7.71-2.66-.43.88,2.14,1.04,1.86,2.66-1.56-.12-2,.78-3.72,1.06.37-1.39-.03-2.65-1.06-2.92-1.49-.39-1.96,1.32-3.99,2.13-.49.19-1.14-.15-1.86,0-2.43.5-3.55,2.17-5.25,1.94-.62-.08-1.32-.42-2.19-1.15-.83-1.87.81-3.4,1.06-5.05,1.17-.12,3.41.08,4.25-1.06.51-1.07-.25-2.14,0-3.72,2.07-1.56,3.97-3.29,6.64-4.25-.54-1.5-2.08-1.99-3.19-2.92-.52-3.11-1.75-5.51-3.45-7.44M115.59,44.32c-.56-2.19-1.58-3.91-3.45-4.78.86,1.88,1.86,3.62,3.45,4.78M40.8,55.42c3.34-1.82,8.2-2.22,12.75-2.12-5.8-.22-7.71-4.33-10.36-7.71-.06-.21-.22-.31-.53-.26-.8,2.86-2.99,6.43-2.38,10.03.03.16.32.06.52.06M50.1,90.22c.12-3.24.76-5.97,2.13-7.97-5.96-1.84-8.26-7.33-12.49-10.89.59,7.47,2.87,13.25,5.31,18.86,1.41.16,3.73.61,5.05,0M39.74,69.5c3.45.56,5.33-2.6,9.3-2.39-3.69-1.9-6.11-6.11-8.77-9.56h-.53c-.4,3.42-.47,8.54,0,11.95"/>
      <path class="cls-2" d="M92.74,16.43c.73,2.28,1,5.02,2.39,6.64-.78,1.73-3.84,2.49-6.11,1.86-.87-1.69,1.2-1.37,1.59-2.66.56-1.83-1.56-5.68,2.12-5.85"/>
      <path class="cls-2" d="M89.82,19.08c.41.48.41,2.17,0,2.66-.48-.04-.56.32-1.06.26-.99-.73-.15-2.08.27-2.92h.8Z"/>
      <path class="cls-2" d="M70.55.16c8.16-1.12,15.82,3.92,13.55,12.49-.52,1.97-2.82,4.78-4.25,6.11-3.66,3.42-11.08,6.08-17.53,6.64-.78.07-1.6.04-2.44-.01-1.76-.1-3.58-.27-5.26.28-1.16.38-2.13,1.31-2.89,2.27l-.43-.36c.39-.47.79-.93,1.2-1.38-1.31.38-2.84,2.82-3.99,4.25-1.12-.39-1.24-.79-2.12-1.33.32.83.83,1.59,1,2.31-.36,1.12-6.15,6.74-6.97,11.01-1.11-.3-1.4-.18-1.99-.56q-.4.27-.26.43c.4.48,1.35.88,2.12,1.43-1.47,3.75-2.83,7.25-3.88,11.42-.63,4.41-1.54,9.67-1.7,14.48-.83.2-1.3.25-2.12.4.04.08-.17.41-.09.46.54.07,1.88-.18,2.48.07-.27,8.24,2.08,13.87,3.72,20.19-1.38.5-4.74,1.49-6.11.26-.71,1.5-3.37,1.42-4.78,2.22,1.79.08,3.72-1.43,5.05-.1.93-1.46,4.58-1.32,6.38-1.06,4.15,13.47,12.06,23.18,22.05,30.82-21.16-.27-34.15-8.71-45.16-19.13-5.87.91-11.78-.04-14.61-3.72-3.34-4.34-.19-10.33,3.72-12.49-9.31-25.82-1.48-52.51,14.08-67.22C28.84,11.31,42.92,4.28,59.4,3.34c.96-.06,1.98.19,2.92,0,2.67-.54,4.78-2.71,8.24-3.19M81.45,5.47c-1.14-2.44-3.59-3.47-6.38-3.72-12.06-1.07-17.98,11.56-20.46,20.99,8.21-6.5,15.72-13.68,26.83-17.27M47.31,27.32c2.27-3.62,2.23-11.6,0-14.88-3.65-5.35-9.53-1.5-9.3,4.52.22,5.43,3.05,8.92,7.44,10.63-.75-2.8-2.26-6.24-1.59-9.56.38,3.87,1.22,7.28,3.45,9.3M37.88,40.8c-.75-5.97-3.65-11.74-7.44-14.61-4.67-3.54-12.68-1.91-12.75,4.25-.1,8.41,10.53,14.76,18.86,11.16-2.98-1.92-6.04-4.66-8.77-7.17-.62-.57-3.49-3.76-1.86-2.13,3.47,3.47,7.61,6.84,11.95,8.5M25.92,105.36c5.74,4.58,11.1-6.08,6.64-10.1-.87,2.05-1.8,4.05-2.92,5.85.56-2.19,1.99-3.5,2.13-6.11-4.18,1.12-8.37,8.4-5.84,10.36M32.03,89.16c2.19-5.6-5.83-11.3-9.9-7.24-2.09,3.05,3.43,7.69,8.83,8.04-.8-1.69-3.37-5.66-4.47-6.09,2.11.68,2.85,3.31,5.53,5.29M33.23,54.95c-3.71-1.33-8.18-1.91-11.96-3.19,4,.61,7.67,1.54,11.96,1.86-2.21-4.65-8.95-10.77-15.94-11.16-5.55-.31-9.47,3.2-8.77,9.03,1.05,8.76,19.35,9.19,24.71,3.45M16.09,95.27c3.64-.52,6.8-1.53,10.1-2.39-3.41-2.27-8.74-5.32-14.88-5.05-5.67.25-12.6,5.76-9.03,11.16,5.24,7.91,22.5,2.55,24.71-5.05-3.6.3-7.52,1.69-10.89,1.33M31.5,70.82c-4.8.52-10.41,1.63-15.68.8,6.08.05,11.68-.36,15.94-2.12-3.65-7.57-29.37-10.65-26.57,3.19,2.08,10.25,25.12,7.29,26.3-1.86"/>
    </g>
  </g>
</svg>